<svg width="24" height="24" viewBox="0 0 24 24" fill="none" xmlns="http://www.w3.org/2000/svg">
<rect width="24" height="24" fill="#F2F2F2"/>
<g clip-path="url(#clip0)">
<rect width="1920" height="8258" transform="translate(-1685 -7901)" fill="white"/>
<g filter="url(#filter0_i)">
<rect x="-1685" y="-221" width="1920" height="578" fill="white"/>
</g>
<g clip-path="url(#clip1)">
<rect x="-309" y="-20" width="368" height="64" rx="8" fill="white" stroke="#E4E4E4"/>
<g opacity="0.5">
<path d="M20 21V19C20 16.7909 18.2091 15 16 15H8C5.79086 15 4 16.7909 4 19V21" stroke="black" stroke-width="2" stroke-linecap="round" stroke-linejoin="round"/>
<path fill-rule="evenodd" clip-rule="evenodd" d="M12 11C14.2091 11 16 9.20914 16 7C16 4.79086 14.2091 3 12 3C9.79086 3 8 4.79086 8 7C8 9.20914 9.79086 11 12 11Z" stroke="black" stroke-width="2" stroke-linecap="round" stroke-linejoin="round"/>
</g>
</g>
</g>
<defs>
<filter id="filter0_i" x="-1685" y="-221" width="1920" height="578" filterUnits="userSpaceOnUse" color-interpolation-filters="sRGB">
<feFlood flood-opacity="0" result="BackgroundImageFix"/>
<feBlend mode="normal" in="SourceGraphic" in2="BackgroundImageFix" result="shape"/>
<feColorMatrix in="SourceAlpha" type="matrix" values="0 0 0 0 0 0 0 0 0 0 0 0 0 0 0 0 0 0 127 0" result="hardAlpha"/>
<feOffset dy="1"/>
<feComposite in2="hardAlpha" operator="arithmetic" k2="-1" k3="1"/>
<feColorMatrix type="matrix" values="0 0 0 0 0.700621 0 0 0 0 0.700879 0 0 0 0 0.701451 0 0 0 0.5 0"/>
<feBlend mode="normal" in2="shape" result="effect1_innerShadow"/>
</filter>
<clipPath id="clip0">
<rect width="1920" height="8258" fill="white" transform="translate(-1685 -7901)"/>
</clipPath>
<clipPath id="clip1">
<rect width="368" height="64" fill="white" transform="translate(-309 -20)"/>
</clipPath>
</defs>
</svg>
